<?xml version="1.0" encoding="utf-8"?>
<!-- Generator: Adobe Illustrator 19.0.0, SVG Export Plug-In . SVG Version: 6.00 Build 0)  -->
<svg version="1.1" id="Laag_1" xmlns="http://www.w3.org/2000/svg" xmlns:xlink="http://www.w3.org/1999/xlink" x="0px" y="0px"
	 viewBox="1 8 66 56.4" style="enable-background:new 1 8 66 56.4;" xml:space="preserve">
<style type="text/css">
	.st0{fill:#222945;}
	.st1{fill:none;}
	.st2{fill:none;stroke:#FFFFFF;stroke-width:0.409;stroke-linecap:round;}
	.st3{fill:none;stroke:#FFFFFF;stroke-width:0.4088;stroke-linecap:round;}
</style>
<path class="st0" d="M65.8,15.2h-1.2c-0.4,0-0.7-0.3-0.7-0.7v-1.2c0-0.4-0.3-0.7-0.7-0.7H62c-0.4,0-0.7-0.3-0.7-0.7v-1.2
	c0-0.4-0.3-0.7-0.7-0.7H27.9c-0.4,0-0.7,0.3-0.7,0.7v1.2c0,0.4-0.3,0.7-0.7,0.7h-1.2c-0.4,0-0.7,0.3-0.7,0.7v1.2
	c0,0.4-0.3,0.7-0.7,0.7h-1.2c-0.4,0-0.7,0.3-0.7,0.7v11.7c0,0.4-0.3,0.7-0.7,0.7h-1.2c-0.4,0-0.7,0.3-0.7,0.7v1.2
	c0,0.4-0.3,0.7-0.7,0.7h-0.4h-0.2H15c-0.4,0-0.7,0.3-0.7,0.7v1.2c0,0.4-0.3,0.7-0.7,0.7h-1.2c-0.4,0-0.7,0.3-0.7,0.7v1.2
	c0,0.4-0.3,0.7-0.7,0.7H9.8c-0.4,0-0.7,0.3-0.7,0.7v3.8c0,0.4-0.3,0.7-0.7,0.7H7.2c-0.4,0-0.7,0.3-0.7,0.7v6.4
	c0,0.4-0.3,0.7-0.7,0.7H4.5c-0.4,0-0.7,0.3-0.7,0.7V51c0,0.4-0.3,0.7-0.7,0.7H2c-0.4,0-0.7,0.3-0.7,0.7v9.1c0,0.4,0.3,0.7,0.7,0.7
	h1.2c0.4,0,0.7-0.3,0.7-0.7v-1.2c0-0.4,0.3-0.7,0.7-0.7h3.9c0.4,0,0.7-0.3,0.7-0.7v-1.2c0-0.4,0.3-0.7,0.7-0.7H11
	c0.4,0,0.7,0.3,0.7,0.7v1.2c0,0.4,0.3,0.7,0.7,0.7h3.8c0.4,0,0.7,0.3,0.7,0.7v1.2c0,0.4,0.3,0.7,0.7,0.7h1.2c0.4,0,0.7-0.3,0.7-0.7
	v-9.1c0-0.4-0.3-0.7-0.7-0.7h-1.2c-0.4,0-0.7-0.3-0.7-0.7v-1.2c0-0.4-0.3-0.7-0.7-0.7h-1.1c-0.4,0-0.7-0.3-0.7-0.7v-1.2
	c0-0.4,0.3-0.7,0.7-0.7h1.2c0.4,0,0.7-0.3,0.7-0.7v-1.2c0-0.4,0.3-0.7,0.7-0.7h0.3h0.3h2.7c0.4,0,0.7,0.3,0.7,0.7v1.2
	c0,0.4-0.3,0.7-0.7,0.7h-1.2c-0.4,0-0.7,0.3-0.7,0.7v1.2c0,0.4,0.3,0.7,0.7,0.7h6.4c0.4,0,0.7-0.3,0.7-0.7v-1c0-0.4,0.3-0.7,0.7-0.7
	h1.2c0.4,0,0.7-0.3,0.7-0.7v-1.2c0-0.4,0.3-0.7,0.7-0.7h30c0.4,0,0.7-0.3,0.7-0.7v-1.2c0-0.4,0.3-0.7,0.7-0.7h1.2
	c0.4,0,0.7-0.3,0.7-0.7v-1.2c0-0.4-0.3-0.7-0.7-0.7H36.3h0c-0.2,0-0.7,0-0.7,0.6v1c0,0.4-0.4,0.8-0.8,0.8h-1.5
	c-0.4,0-0.8-0.4-0.8-0.8V39c0-0.4,0.4-0.8,0.8-0.8h0.5c0,0,1.2-0.1,1.2-0.7v-0.2c0-0.4,0.3-1,1.6-1h29.3c0.4,0,0.7-0.3,0.7-0.7v-1.2
	V33V15.9C66.5,15.5,66.2,15.2,65.8,15.2z"/>
<title>logo</title>
<desc>Created with Sketch.</desc>
<g>
	<path class="st1" d="M36.2,38.9L36.2,38.9C36.3,38.9,36.3,38.9,36.2,38.9z"/>
	<path class="st1" d="M39.6,28.3h-1.2c-0.4,0-0.7,0.3-0.7,0.7v1.2c0,0.4,0.3,0.7,0.7,0.7h1.2c0.4,0,0.7-0.3,0.7-0.7V29
		C40.3,28.6,40,28.3,39.6,28.3z"/>
</g>
<g>
	<line class="st2" x1="37.8" y1="28.6" x2="40.2" y2="30.9"/>
	<line class="st3" x1="40.2" y1="28.6" x2="37.8" y2="30.9"/>
</g>
</svg>
