<?xml version="1.0" encoding="UTF-8" standalone="no"?>
<svg width="66px" height="50px" viewBox="0 0 66 50" version="1.1" xmlns="http://www.w3.org/2000/svg" xmlns:xlink="http://www.w3.org/1999/xlink">
    <!-- Generator: Sketch 40 (33762) - http://www.bohemiancoding.com/sketch -->
    <title>logo</title>
    <desc>Created with Sketch.</desc>
    <defs></defs>
    <g id="Page-1" stroke="none" stroke-width="1" fill="none" fill-rule="evenodd">
        <g id="logo" fill="#222945">
            <g id="whaleLogo">
                <g id="XMLID_1_">
                    <g id="XMLID_4_" transform="translate(39.000000, 0.000000)">
                        <path d="M2.3,2.7 C2.7,2.7 3,2.4 3,2 L3,0.8 C3,0.4 3.3,0.1 3.7,0.1 L4.9,0.1 C5.3,0.1 5.6,0.4 5.6,0.8 L5.6,2 C5.6,2.4 5.9,2.7 6.3,2.7 L7.4,2.7 C7.8,2.7 8.1,2.4 8.1,2 L8.1,0.8 C8.1,0.4 8.4,0.1 8.8,0.1 L10,0.1 C10.4,0.1 10.7,0.4 10.7,0.8 L10.7,2 C10.7,2.4 11,2.7 11.4,2.7 L12.5,2.7 C12.9,2.7 13.2,3 13.2,3.4 L13.2,4.6 C13.2,5 12.9,5.3 12.5,5.3 L11.3,5.3 C10.9,5.3 10.6,5 10.6,4.6 L10.6,3.4 C10.6,3 10.3,2.7 9.9,2.7 L8.8,2.7 C8.4,2.7 8.1,3 8.1,3.4 L8.1,7.2 C8.1,7.6 7.8,7.9 7.4,7.9 L6.2,7.9 C5.8,7.9 5.5,7.6 5.5,7.2 L5.5,3.4 C5.5,3 5.2,2.7 4.8,2.7 L3.7,2.7 C3.3,2.7 3,3 3,3.4 L3,4.5 C3,4.9 2.7,5.2 2.3,5.2 L1.1,5.2 C0.7,5.2 0.4,4.9 0.4,4.5 L0.4,3.4 C0.4,3 0.7,2.7 1.1,2.7 L2.3,2.7 L2.3,2.7 Z" id="XMLID_15_"></path>
                    </g>
                    <path d="M0.7,13.2 C0.3,13.2 0,13.5 0,13.9 L0,23 C0,23.4 0.3,23.7 0.7,23.7 L1.9,23.7 C2.3,23.7 2.6,24 2.6,24.4 L2.6,25.6 C2.6,26 2.9,26.3 3.3,26.3 L4.5,26.3 C4.9,26.3 5.2,26.6 5.2,27 L5.2,33.4 C5.2,33.8 5.5,34.1 5.9,34.1 L7.1,34.1 C7.5,34.1 7.8,34.4 7.8,34.8 L7.8,38.6 C7.8,39 8.1,39.3 8.5,39.3 L9.7,39.3 C10.1,39.3 10.4,39.6 10.4,40 L10.4,41.2 C10.4,41.6 10.7,41.9 11.1,41.9 L12.3,41.9 C12.7,41.9 13,42.2 13,42.6 L13,43.8 C13,44.2 13.3,44.5 13.7,44.5 L20.1,44.5 C20.5,44.5 20.8,44.8 20.8,45.2 L20.8,46.4 C20.8,46.8 20.5,47.1 20.1,47.1 L18.9,47.1 C18.5,47.1 18.2,47.4 18.2,47.8 L18.2,49 C18.2,49.4 18.5,49.7 18.9,49.7 L25.3,49.7 C25.7,49.7 26,49.4 26,49 L26,48 C26,47.6 26.3,47.3 26.7,47.3 L27.9,47.3 C28.3,47.3 28.6,47 28.6,46.6 L28.6,45.4 C28.6,45 28.9,44.7 29.3,44.7 L59.3,44.7 C59.7,44.7 60,44.4 60,44 L60,42.8 C60,42.4 60.3,42.1 60.7,42.1 L61.9,42.1 C62.3,42.1 62.6,41.8 62.6,41.4 L62.6,40.2 C62.6,39.8 62.3,39.5 61.9,39.5 L34.6,39.5 C34.2,39.5 33.9,39.2 33.9,38.8 L33.9,37.6 C33.9,37.2 33.6,36.9 33.2,36.9 L32.2,36.9 C31.8,36.9 31.5,36.6 31.5,36.2 L31.5,35 C31.5,34.6 31.8,34.3 32.2,34.3 L33.8,34.3 C34.2,34.3 34.5,34.6 34.5,35 L34.5,36.2 C34.5,36.6 34.8,36.9 35.2,36.9 L64.8,36.9 C65.2,36.9 65.5,36.6 65.5,36.2 L65.5,35 L65.5,33.6 L65.5,16.5 C65.5,16.1 65.2,15.8 64.8,15.8 L63.6,15.8 C63.2,15.8 62.9,15.5 62.9,15.1 L62.9,13.9 C62.9,13.5 62.6,13.2 62.2,13.2 L61,13.2 C60.6,13.2 60.3,12.9 60.3,12.5 L60.3,11.3 C60.3,10.9 60,10.6 59.6,10.6 L26.9,10.6 C26.5,10.6 26.2,10.9 26.2,11.3 L26.2,12.5 C26.2,12.9 25.9,13.2 25.5,13.2 L24.3,13.2 C23.9,13.2 23.6,13.5 23.6,13.9 L23.6,15.1 C23.6,15.5 23.3,15.8 22.9,15.8 L21.7,15.8 C21.3,15.8 21,16.1 21,16.5 L21,28.2 C21,28.6 20.7,28.9 20.3,28.9 L19.1,28.9 C18.7,28.9 18.4,29.2 18.4,29.6 L18.4,30.8 C18.4,31.2 18.1,31.5 17.7,31.5 L16.5,31.5 C16.1,31.5 15.8,31.2 15.8,30.8 L15.8,29.6 C15.8,29.2 15.5,28.9 15.1,28.9 L13.9,28.9 C13.5,28.9 13.2,28.6 13.2,28.2 L13.2,27 C13.2,26.6 13.5,26.3 13.9,26.3 L15,26.3 C15.4,26.3 15.7,26 15.7,25.6 L15.7,24.4 C15.7,24 16,23.7 16.4,23.7 L17.6,23.7 C18,23.7 18.3,23.4 18.3,23 L18.3,13.9 C18.3,13.5 18,13.2 17.6,13.2 L16.4,13.2 C16,13.2 15.7,13.5 15.7,13.9 L15.7,15.1 C15.7,15.5 15.4,15.8 15,15.8 L11.2,15.8 C10.8,15.8 10.5,16.1 10.5,16.5 L10.5,17.7 C10.5,18.1 10.2,18.4 9.8,18.4 L8.6,18.4 C8.2,18.4 7.9,18.1 7.9,17.7 L7.9,16.5 C7.9,16.1 7.6,15.8 7.2,15.8 L3.3,15.8 C2.9,15.8 2.6,15.5 2.6,15.1 L2.6,13.9 C2.6,13.5 2.3,13.2 1.9,13.2 L0.7,13.2 L0.7,13.2 Z M36.7,29.6 C36.7,29.2 37,28.9 37.4,28.9 L38.6,28.9 C39,28.9 39.3,29.2 39.3,29.6 L39.3,30.8 C39.3,31.2 39,31.5 38.6,31.5 L37.4,31.5 C37,31.5 36.7,31.2 36.7,30.8 L36.7,29.6 L36.7,29.6 Z" id="XMLID_26_"></path>
                </g>
            </g>
        </g>
    </g>
</svg>