<svg version="1.1" id="splash" xmlns="http://www.w3.org/2000/svg" xmlns:xlink="http://www.w3.org/1999/xlink" x="0px" y="0px"
	 width="65.5px" height="40.7px" viewBox="-116 131 65.5 40.7" enable-background="new -116 131 65.5 40.7" xml:space="preserve">
<g id="XMLID_4_">
	<path id="XMLID_15_" fill="#FFFFFF" d="M-104.5,145.2c1.9,0,3.3-1.4,3.3-3.3v-5.7c0-1.9,1.4-3.3,3.3-3.3h5.7c1.9,0,3.3,1.4,3.3,3.3
		v5.7c0,1.9,1.4,3.3,3.3,3.3h5.2c1.9,0,3.3-1.4,3.3-3.3v-5.7c0-1.9,1.4-3.3,3.3-3.3h5.7c1.9,0,3.3,1.4,3.3,3.3v5.7
		c0,1.9,1.4,3.3,3.3,3.3h5.2c1.9,0,3.3,1.4,3.3,3.3v5.7c0,1.9-1.4,3.3-3.3,3.3H-62c-1.9,0-3.3-1.4-3.3-3.3v-5.7
		c0-1.9-1.4-3.3-3.3-3.3h-5.2c-1.9,0-3.3,1.4-3.3,3.3v18c0,1.9-1.4,3.3-3.3,3.3h-5.7c-1.9,0-3.3-1.4-3.3-3.3v-18
		c0-1.9-1.4-3.3-3.3-3.3h-5.2c-1.9,0-3.3,1.4-3.3,3.3v5.2c0,1.9-1.4,3.3-3.3,3.3h-5.7c-1.9,0-3.3-1.4-3.3-3.3v-5.2
		c0-1.9,1.4-3.3,3.3-3.3H-104.5z"/>
</g>
</svg>
